<?xml version="1.0" encoding="UTF-8" standalone="no"?>
<!-- Created with Inkscape (http://www.inkscape.org/) -->

<svg
   xmlns:dc="http://purl.org/dc/elements/1.1/"
   xmlns:cc="http://creativecommons.org/ns#"
   xmlns:rdf="http://www.w3.org/1999/02/22-rdf-syntax-ns#"
   xmlns:svg="http://www.w3.org/2000/svg"
   xmlns="http://www.w3.org/2000/svg"
   xmlns:sodipodi="http://sodipodi.sourceforge.net/DTD/sodipodi-0.dtd"
   xmlns:inkscape="http://www.inkscape.org/namespaces/inkscape"
   width="64px"
   height="64px"
   id="svg5460"
   version="1.1"
   inkscape:version="0.48.4 r9939"
   sodipodi:docname="ZikDroid.svg">
  <defs
     id="defs5462" />
  <sodipodi:namedview
     id="base"
     pagecolor="#ffffff"
     bordercolor="#666666"
     borderopacity="1.0"
     inkscape:pageopacity="0.0"
     inkscape:pageshadow="2"
     inkscape:zoom="5.5"
     inkscape:cx="-18.545454"
     inkscape:cy="32"
     inkscape:current-layer="layer1"
     showgrid="true"
     inkscape:document-units="px"
     inkscape:grid-bbox="true"
     inkscape:window-width="1918"
     inkscape:window-height="1061"
     inkscape:window-x="0"
     inkscape:window-y="17"
     inkscape:window-maximized="0" />
  <metadata
     id="metadata5465">
    <rdf:RDF>
      <cc:Work
         rdf:about="">
        <dc:format>image/svg+xml</dc:format>
        <dc:type
           rdf:resource="http://purl.org/dc/dcmitype/StillImage" />
        <dc:title></dc:title>
      </cc:Work>
    </rdf:RDF>
  </metadata>
  <g
     id="layer1"
     inkscape:label="Layer 1"
     inkscape:groupmode="layer">
    <path
       inkscape:connector-curvature="0"
       style="fill:#ffffff;fill-opacity:1;fill-rule:nonzero;stroke:none;stroke-width:0.39799183999999999;stroke-miterlimit:4;stroke-opacity:1;stroke-dasharray:none"
       d="M 32.117407,0.63791775 C 24.82447,0.99183862 13.658182,4.3162751 9.398707,19.957105 c 0,0 0.3852879,0.574731 1.243725,0.99498 -0.504209,3.601103 -0.109872,10.31955 0.124373,11.069148 0.252861,0.809382 1.451011,1.077895 1.451011,1.077895 17.042205,-0.303138 16.95611,13.183479 16.95611,13.183479 -0.166204,0.379952 -0.308665,0.53265 -0.414575,0.580404 -0.701389,-5.760198 -4.077688,-10.38038 -8.457327,-11.85684 l 0,28.232546 c 4.759438,-1.604497 8.293694,-6.971108 8.540242,-13.432224 l 0.04146,0.248745 c 1.719325,-0.657218 1.53393,-3.606802 1.53393,-3.606802 C 29.962526,32.794531 14.95401,31.357913 14.95401,31.357913 14.706778,30.221912 14.663807,30.404391 14.663807,30.404391 12.439373,27.165299 12.265413,23.117062 12.30073,21.408117 c 0.333041,0.01581 0.677041,-0.02759 1.077895,-0.08291 0,0 3.475875,-15.2940978 20.231252,-15.2978124 16.755357,0 20.231251,15.2978124 20.231251,15.2978124 0.417965,0.05768 0.775018,0.102097 1.119353,0.08291 0.03533,1.708945 -0.138633,5.757182 -2.363077,8.996274 -0.03534,0.002 -0.146258,0.101527 -0.33166,0.953522 0,0 -15.008499,1.436618 -15.463641,15.090523 0,0 -0.143955,2.949584 1.575384,3.606802 0.380075,7.647735 5.396719,13.680969 11.525181,13.680969 6.376039,0 11.52518,-6.55138 11.52518,-14.634491 0,-8.083113 -5.149141,-14.634492 -11.52518,-14.634492 -5.772665,0 -10.54724,5.380556 -11.400808,12.395787 -0.107472,-0.0379 -0.237578,-0.175779 -0.414575,-0.580404 0,0 -0.127583,-13.486617 16.914653,-13.183479 0,0 1.239625,-0.268513 1.49247,-1.077895 0.234261,-0.749598 0.628593,-7.468045 0.124372,-11.069148 0.85844,-0.420249 1.202266,-0.99498 1.202266,-0.99498 C 53.277608,3.2735525 40.867322,0.63791775 33.692792,0.63791775 c -0.02648,0 -0.05676,1.3266e-4 -0.08292,0 -0.02617,1.3266e-4 -0.05643,0 -0.08291,0 -0.448409,0 -0.923359,-0.023601 -1.409555,0 z M 17.358544,34.467224 c -4.234041,0 -7.9340617,2.905584 -9.9497962,7.213602 L 4.3823515,39.939611 C 4.2112615,39.840539 4.0281096,39.756043 3.8434043,39.732324 3.2892882,39.661182 2.7369471,39.927267 2.4338499,40.437102 2.029721,41.116881 2.2469781,41.989283 2.9313397,42.385604 L 6.4137683,44.41702 C 6.019483,45.889644 5.791906,47.460861 5.791906,49.101716 c 0,1.736863 0.2651978,3.387821 0.7047772,4.93344 L 2.9313397,56.10803 c -0.6846787,0.396505 -0.9018071,1.268408 -0.4974898,1.948502 0.4043159,0.680094 1.2638231,0.893994 1.9485016,0.497489 l 3.1507687,-1.824129 c 2.0377687,4.187135 5.6632448,7.006315 9.8254238,7.006315 0.469454,0 0.913311,-0.01388 1.368097,-0.08291 -0.02878,-0.03932 -0.08291,-0.07169 -0.08291,-0.124373 l 0,-28.937322 c -0.429304,-0.06137 -0.842942,-0.124373 -1.285182,-0.124373 z m -4.933441,6.301538 c 0.801372,0 1.451012,0.64964 1.451012,1.451011 0,0.801372 -0.64964,1.451012 -1.451012,1.451012 -0.801371,0 -1.451011,-0.64964 -1.451011,-1.451012 0,-0.801371 0.64964,-1.451011 1.451011,-1.451011 z m 0,13.888256 c 0.801372,0 1.451012,0.649642 1.451012,1.451012 0,0.801371 -0.64964,1.451013 -1.451012,1.451013 -0.801371,0 -1.451011,-0.649642 -1.451011,-1.451013 0,-0.80137 0.64964,-1.451012 1.451011,-1.451012 z"
       id="path3050" />
  </g>
</svg>
