<?xml version="1.0" encoding="UTF-8" standalone="no"?>
<!-- Created with Inkscape (http://www.inkscape.org/) -->

<svg
   xmlns:dc="http://purl.org/dc/elements/1.1/"
   xmlns:cc="http://creativecommons.org/ns#"
   xmlns:rdf="http://www.w3.org/1999/02/22-rdf-syntax-ns#"
   xmlns:svg="http://www.w3.org/2000/svg"
   xmlns="http://www.w3.org/2000/svg"
   xmlns:sodipodi="http://sodipodi.sourceforge.net/DTD/sodipodi-0.dtd"
   xmlns:inkscape="http://www.inkscape.org/namespaces/inkscape"
   width="64px"
   height="64px"
   id="svg5460"
   version="1.1"
   inkscape:version="0.48.4 r9939"
   sodipodi:docname="notification.svg">
  <defs
     id="defs5462" />
  <sodipodi:namedview
     id="base"
     pagecolor="#ffffff"
     bordercolor="#666666"
     borderopacity="1.0"
     inkscape:pageopacity="0.0"
     inkscape:pageshadow="2"
     inkscape:zoom="5.5"
     inkscape:cx="-18.545454"
     inkscape:cy="32"
     inkscape:current-layer="layer1"
     showgrid="true"
     inkscape:document-units="px"
     inkscape:grid-bbox="true"
     inkscape:window-width="1918"
     inkscape:window-height="1061"
     inkscape:window-x="0"
     inkscape:window-y="17"
     inkscape:window-maximized="0" />
  <metadata
     id="metadata5465">
    <rdf:RDF>
      <cc:Work
         rdf:about="">
        <dc:format>image/svg+xml</dc:format>
        <dc:type
           rdf:resource="http://purl.org/dc/dcmitype/StillImage" />
        <dc:title />
      </cc:Work>
    </rdf:RDF>
  </metadata>
  <g
     id="layer1"
     inkscape:label="Layer 1"
     inkscape:groupmode="layer">
    <path
       inkscape:connector-curvature="0"
       style="fill:#ffffff;fill-opacity:1;fill-rule:nonzero;stroke:none"
       d="M 63.373281,32.469843 C 63.01936,25.176906 59.694924,14.010618 44.054094,9.7511434 c 0,0 -0.574731,0.3852876 -0.99498,1.2437246 -3.601103,-0.504209 -10.31955,-0.109872 -11.069148,0.124373 -0.809382,0.252861 -1.077895,1.451011 -1.077895,1.451011 0.303138,17.042205 -13.183479,16.95611 -13.183479,16.95611 -0.379952,-0.166204 -0.53265,-0.308665 -0.580404,-0.414575 5.760198,-0.701389 10.38038,-4.077688 11.85684,-8.457327 l -28.23254598,0 C 2.376979,25.413898 7.74359,28.948154 14.204706,29.194702 l -0.248745,0.04146 c 0.657218,1.719325 3.606802,1.53393 3.606802,1.53393 13.653905,-0.45513 15.090523,-15.463646 15.090523,-15.463646 1.136001,-0.247232 0.953522,-0.290203 0.953522,-0.290203 3.239092,-2.224434 7.287329,-2.398394 8.996274,-2.363077 -0.01581,0.333041 0.02759,0.677041 0.08291,1.077895 0,0 15.294098,3.475875 15.297812,20.231252 0,16.755357 -15.297812,20.231251 -15.297812,20.231251 -0.05768,0.417965 -0.102097,0.775018 -0.08291,1.119353 -1.708945,0.03533 -5.757182,-0.138633 -8.996274,-2.363077 -0.002,-0.03534 -0.101527,-0.146258 -0.953522,-0.33166 0,0 -1.436618,-15.008499 -15.090523,-15.463641 0,0 -2.949584,-0.143955 -3.606802,1.575384 -7.647735,0.380075 -13.68096898,5.396719 -13.68096898,11.525181 0,6.376039 6.55137998,11.52518 14.63449098,11.52518 8.083113,0 14.634492,-5.149141 14.634492,-11.52518 0,-5.772665 -5.380556,-10.54724 -12.395787,-11.400808 0.0379,-0.107472 0.175779,-0.237578 0.580404,-0.414575 0,0 13.486617,-0.127583 13.183479,16.914653 0,0 0.268513,1.239625 1.077895,1.49247 0.749598,0.234261 7.468045,0.628593 11.069148,0.124372 0.420249,0.85844 0.99498,1.202266 0.99498,1.202266 16.683553,-4.543438 19.319187,-16.953724 19.319187,-24.128254 0,-0.02648 -1.32e-4,-0.05676 0,-0.08292 -1.32e-4,-0.02617 0,-0.05643 0,-0.08291 0,-0.448409 0.0236,-0.923359 0,-1.409555 z M 29.543975,17.71098 c 0,-4.234041 -2.905584,-7.9340613 -7.213602,-9.9497958 L 24.071588,4.7347879 C 24.17066,4.5636979 24.255156,4.380546 24.278875,4.1958407 24.350017,3.6417246 24.083932,3.0893835 23.574097,2.7862863 22.894318,2.3821574 22.021916,2.5994145 21.625595,3.2837761 L 19.594179,6.7662047 C 18.121555,6.3719194 16.550338,6.1443424 14.909483,6.1443424 c -1.736863,0 -3.387821,0.2651978 -4.93344,0.7047772 L 7.903169,3.2837761 C 7.506664,2.5990974 6.634761,2.381969 5.954667,2.7862863 5.274573,3.1906022 5.060673,4.0501094 5.457178,4.7347879 L 7.281307,7.8855566 C 3.094172,9.9233253 0.27499202,13.548801 0.27499202,17.71098 c 0,0.469454 0.01388,0.913311 0.08291,1.368097 0.03932,-0.02878 0.07169,-0.08291 0.124373,-0.08291 l 28.93732198,0 c 0.06137,-0.429304 0.124373,-0.842942 0.124373,-1.285182 z m -6.301538,-4.933441 c 0,0.801372 -0.64964,1.451012 -1.451011,1.451012 -0.801372,0 -1.451012,-0.64964 -1.451012,-1.451012 0,-0.801371 0.64964,-1.451011 1.451012,-1.451011 0.801371,0 1.451011,0.64964 1.451011,1.451011 z m -13.888256,0 c 0,0.801372 -0.649642,1.451012 -1.451012,1.451012 -0.801371,0 -1.451013,-0.64964 -1.451013,-1.451012 0,-0.801371 0.649642,-1.451011 1.451013,-1.451011 0.80137,0 1.451012,0.64964 1.451012,1.451011 z"
       id="path3050" />
  </g>
</svg>
